<svg width="108" height="108" viewBox="0 0 108 108" fill="none" xmlns="http://www.w3.org/2000/svg">
<path d="M70.0162 37.8387C65.7492 42.1058 63.352 47.8931 63.352 53.9275C63.352 59.962 65.7492 65.7493 70.0162 70.0163L85.3979 54.6346C85.7885 54.2441 85.7885 53.6109 85.3979 53.2204L70.0162 37.8387Z" fill="#F8F8F8"/>
<path d="M53.9273 53.9276C58.1944 49.6606 60.5916 43.8733 60.5916 37.8388C60.5916 31.8043 58.1944 26.017 53.9274 21.75L37.8385 37.8388C35.705 39.9723 34.5064 42.866 34.5064 45.8832C34.5064 48.9004 35.705 51.7941 37.8385 53.9276C39.972 56.0611 42.8657 57.2597 45.8829 57.2597C48.9002 57.2597 51.7938 56.0611 53.9273 53.9276Z" fill="#F8F8F8"/>
<path d="M37.8388 53.9276C35.7053 51.7941 32.8117 50.5955 29.7944 50.5955C27.1119 50.5955 24.5271 51.5429 22.4873 53.2524C22.064 53.6071 22.0666 54.2442 22.4571 54.6347L37.8388 70.0164C39.9723 67.8829 41.1709 64.9892 41.1709 61.972C41.1709 58.9547 39.9723 56.0611 37.8388 53.9276Z" fill="#F8F8F8"/>
<path d="M37.8385 70.0163L53.2202 85.398C53.6108 85.7885 54.2439 85.7885 54.6344 85.398L70.0162 70.0163C65.7492 65.7493 59.9618 63.3521 53.9274 63.3521C47.8929 63.3521 42.1056 65.7493 37.8385 70.0163Z" fill="#F8F8F8"/>
</svg>
